# File produced by Open Asset Import Library (http://www.assimp.sf.net)
# (assimp v3.0.1262)

mtllib ButtonElevator.b3d.obj.mtl

# 204 vertex positions
v  1.38212 4.0924 0.000657
v  1.38212 -1.67912 1.01514
v  1.38212 -1.67912 0.000656
v  1.38212 -1.67912 0.000656
v  -1.38743 -1.67912 1.01514
v  -1.38743 -1.67912 0.000658
v  -1.38743 -1.67912 0.000658
v  -1.38743 -1.67912 1.01514
v  -1.38743 4.0924 0.000659
v  1.38212 4.0924 1.01514
v  1.38212 -1.67912 1.01514
v  1.38212 4.0924 0.000657
v  1.38212 -1.67912 1.01514
v  -1.38743 -1.67912 1.01514
v  1.38212 -1.67912 0.000656
v  -1.38743 4.0924 1.01514
v  -1.38743 4.0924 0.000659
v  -1.38743 -1.67912 1.01514
v  1.38212 4.0924 0.000657
v  -1.38743 4.0924 0.000659
v  -1.38743 4.0924 1.01514
v  -1.05808 1.59335 1.48955
v  -0.531843 1.59335 1.48955
v  -0.002652 1.90101 1.48955
v  -1.05808 1.59335 1.48955
v  -1.05808 1.90101 1.48955
v  -1.38743 -1.67912 1.01514
v  -1.05808 1.90101 1.48955
v  -1.05808 1.59335 1.48955
v  -0.002652 1.90101 1.48955
v  -1.38743 4.0924 1.01514
v  1.38212 4.0924 1.01514
v  1.38212 4.0924 0.000657
v  -0.002651 -1.20677 1.48955
v  -1.38743 -1.67912 1.01514
v  1.38212 -1.67912 1.01514
v  1.05714 1.59335 1.48955
v  1.38212 -1.67912 1.01514
v  1.05714 1.90101 1.48955
v  -1.05808 -0.918796 1.48955
v  -1.05808 -0.323969 1.48955
v  -1.38743 -1.67912 1.01514
v  -1.05808 -1.20677 1.48955
v  -1.38743 -1.67912 1.01514
v  -0.002651 -1.20677 1.48955
v  1.05573 1.90101 1.27116
v  -0.002652 1.90101 1.27116
v  -0.002652 1.90101 1.48955
v  1.05714 3.62005 1.48955
v  1.05714 1.90101 1.48955
v  1.38212 -1.67912 1.01514
v  -1.05808 3.62005 1.48955
v  -1.38743 -1.67912 1.01514
v  -1.05808 1.90101 1.48955
v  -0.002652 1.90101 1.27116
v  -1.05808 1.90101 1.48955
v  -0.002652 1.90101 1.48955
v  -1.05808 3.62005 1.48955
v  -1.05808 1.90101 1.48955
v  -1.06103 1.90101 1.27116
v  -1.05808 3.62005 1.48955
v  -1.06103 3.62005 1.27116
v  1.05573 3.62005 1.27116
v  1.05714 3.62005 1.48955
v  -1.05808 3.62005 1.48955
v  1.05573 3.62005 1.27116
v  1.05714 3.62005 1.48955
v  1.05573 1.90101 1.27116
v  1.05714 1.90101 1.48955
v  -1.06103 3.62005 1.27116
v  -1.05808 3.62005 1.48955
v  -1.06103 1.90101 1.27116
v  1.05573 3.62005 1.27116
v  1.05573 1.90101 1.27116
v  1.05714 3.62005 1.48955
v  1.05714 0.992528 1.48955
v  1.38212 -1.67912 1.01514
v  1.05714 1.59335 1.48955
v  1.05714 3.62005 1.48955
v  1.38212 -1.67912 1.01514
v  1.38212 4.0924 1.01514
v  1.05714 3.62005 1.48955
v  1.38212 4.0924 1.01514
v  -1.38743 4.0924 1.01514
v  -1.05808 3.62005 1.48955
v  1.05714 3.62005 1.48955
v  -1.38743 4.0924 1.01514
v  -1.05808 3.62005 1.48955
v  -1.38743 4.0924 1.01514
v  -1.38743 -1.67912 1.01514
v  -1.05808 -0.918796 1.48955
v  -1.38743 -1.67912 1.01514
v  -1.05808 -1.20677 1.48955
v  -0.531843 -0.918796 1.48955
v  -1.05808 -1.20677 1.48955
v  -0.002651 -1.20677 1.48955
v  1.05714 -0.918796 1.48955
v  0.52654 -0.918796 1.48955
v  1.05714 -1.20677 1.48955
v  1.05714 -0.918796 1.48955
v  1.05714 -1.20677 1.48955
v  1.38212 -1.67912 1.01514
v  1.05714 1.90101 1.48955
v  1.05573 1.90101 1.27116
v  -0.002652 1.90101 1.48955
v  1.05714 1.90101 1.48955
v  -0.002652 1.90101 1.48955
v  1.05714 1.59335 1.48955
v  -1.06103 1.90101 1.27116
v  -1.05808 1.90101 1.48955
v  -0.002652 1.90101 1.27116
v  -0.002651 -0.918796 1.48955
v  -0.002651 -1.20677 1.48955
v  0.52654 -0.918796 1.48955
v  1.05714 -0.323968 1.48955
v  1.38212 -1.67912 1.01514
v  1.05714 0.992528 1.48955
v  -0.002652 1.59335 1.48955
v  -0.002652 1.90101 1.48955
v  -0.531843 1.59335 1.48955
v  -1.05808 -0.918796 1.48955
v  -1.05808 -1.20677 1.48955
v  -0.531843 -0.918796 1.48955
v  -1.05808 1.59335 1.48955
v  -1.38743 -1.67912 1.01514
v  -1.05808 0.992528 1.48955
v  1.05714 -1.20677 1.48955
v  0.52654 -0.918796 1.48955
v  -0.002651 -1.20677 1.48955
v  1.05714 -1.20677 1.48955
v  -0.002651 -1.20677 1.48955
v  1.38212 -1.67912 1.01514
v  1.05714 1.59335 1.48955
v  -0.002652 1.90101 1.48955
v  0.52654 1.59335 1.48955
v  1.05714 -0.918796 1.48955
v  1.38212 -1.67912 1.01514
v  1.05714 -0.323968 1.48955
v  -1.05808 0.992528 1.48955
v  -1.38743 -1.67912 1.01514
v  -1.05808 -0.323969 1.48955
v  0.52654 1.59335 1.48955
v  -0.002652 1.90101 1.48955
v  -0.002652 1.59335 1.48955
v  -0.531843 -0.918796 1.48955
v  -0.002651 -1.20677 1.48955
v  -0.002651 -0.918796 1.48955
v  -1.05808 -0.918796 1.48955
v  1.05724 -0.926345 1.48955
v  1.06297 1.60046 1.48955
v  -1.05808 1.6041 1.48955
v  -1.05808 -0.918796 1.48955
v  1.06297 1.60046 1.48955
v  0.496299 0.517803 1.54686
v  -0.00823051 1.36948 1.5512
v  -0.473472 0.524537 1.55532
v  -0.473472 0.524537 1.55532
v  -0.0117306 1.36945 1.15011
v  -0.476972 0.524506 1.15424
v  -0.00823051 1.36948 1.5512
v  -0.0117306 1.36945 1.15011
v  -0.473472 0.524537 1.55532
v  0.496299 0.517803 1.54686
v  -0.476972 0.524506 1.15424
v  0.492799 0.517772 1.14577
v  -0.473472 0.524537 1.55532
v  -0.476972 0.524506 1.15424
v  0.496299 0.517803 1.54686
v  -0.00823051 1.36948 1.5512
v  0.492799 0.517772 1.14577
v  -0.0117306 1.36945 1.15011
v  0.496299 0.517803 1.54686
v  0.492799 0.517772 1.14577
v  -0.00823051 1.36948 1.5512
v  -0.483017 0.153875 1.56051
v  0.0215273 -0.697802 1.55617
v  0.486754 0.147141 1.55205
v  0.486754 0.147141 1.55205
v  0.0180273 -0.697832 1.15509
v  0.483254 0.14711 1.15096
v  0.0215273 -0.697802 1.55617
v  0.0180273 -0.697832 1.15509
v  0.486754 0.147141 1.55205
v  -0.483017 0.153875 1.56051
v  0.483254 0.14711 1.15096
v  -0.486517 0.153845 1.15942
v  0.486754 0.147141 1.55205
v  0.483254 0.14711 1.15096
v  -0.483017 0.153875 1.56051
v  0.0215273 -0.697802 1.55617
v  -0.486517 0.153845 1.15942
v  0.0180273 -0.697832 1.15509
v  -0.483017 0.153875 1.56051
v  -0.486517 0.153845 1.15942
v  0.0215273 -0.697802 1.55617
v  -1.06103 3.62005 1.27116
v  -1.06103 1.90101 1.27116
v  1.05573 3.62005 1.27116
v  1.05573 3.62005 1.27116
v  -0.002652 1.90101 1.27116
v  1.05573 1.90101 1.27116
v  -1.06103 1.90101 1.27116
v  -0.002652 1.90101 1.27116
v  1.05573 3.62005 1.27116

# 204 UV coordinates
vt 0.273377 1.69138 0
vt 0.023885 1.27587 0
vt 0.273377 1.27587 0
vt 0.687948 1.69257 0
vt 0.278531 1.94872 0
vt 0.278531 1.69257 0
vt 0.02318 1.27587 0
vt 0.278531 1.27587 0
vt 0.02318 1.69138 0
vt 0.023885 1.69138 0
vt 0.023885 1.27587 0
vt 0.273377 1.69138 0
vt 0.687948 1.94872 0
vt 0.278531 1.94872 0
vt 0.687948 1.69257 0
vt 0.278531 1.69138 0
vt 0.02318 1.69138 0
vt 0.278531 1.27587 0
vt 0.687948 1.94677 0
vt 0.278531 1.94677 0
vt 0.278531 1.69138 0
vt 0.357608 1.36213 0
vt 0.483064 1.36213 0
vt 0.60852 1.40295 0
vt 0.357608 1.36213 0
vt 0.357608 1.40295 0
vt 0.28023 1.02428 0
vt 0.357608 1.40295 0
vt 0.357608 1.36213 0
vt 0.60852 1.40295 0
vt 0.278531 1.69138 0
vt 0.687948 1.69138 0
vt 0.687948 1.94677 0
vt 0.60852 1.08675 0
vt 0.28023 1.02428 0
vt 0.936812 1.02428 0
vt 0.859434 1.36213 0
vt 0.936812 1.02428 0
vt 0.859434 1.40295 0
vt 0.357608 1.12417 0
vt 0.357608 1.20349 0
vt 0.28023 1.02428 0
vt 0.357608 1.08675 0
vt 0.28023 1.02428 0
vt 0.60852 1.08675 0
vt 0.947956 1.23013 0
vt 0.947956 1.36526 0
vt 0.982077 1.36526 0
vt 0.859434 1.63029 0
vt 0.859434 1.40295 0
vt 0.936812 1.02428 0
vt 0.357608 1.63029 0
vt 0.28023 1.02428 0
vt 0.357608 1.40295 0
vt 0.947956 1.36526 0
vt 0.982077 1.5004 0
vt 0.982077 1.36526 0
vt 0.982077 1.70784 0
vt 0.982077 1.5004 0
vt 0.947956 1.5004 0
vt 0.982077 1.70784 0
vt 0.947956 1.70784 0
vt 0.947956 1.97812 0
vt 0.982077 1.97812 0
vt 0.982077 1.70784 0
vt 0.947956 1.97812 0
vt 0.982077 1.02269 0
vt 0.947956 1.23013 0
vt 0.982077 1.23013 0
vt 0.947956 1.70784 0
vt 0.982077 1.70784 0
vt 0.947956 1.5004 0
vt 0.947956 1.02269 0
vt 0.947956 1.23013 0
vt 0.982077 1.02269 0
vt 0.859434 1.28281 0
vt 0.936812 1.02428 0
vt 0.859434 1.36213 0
vt 0.859434 1.63029 0
vt 0.936812 1.02428 0
vt 0.936812 1.69275 0
vt 0.859434 1.63029 0
vt 0.936812 1.69275 0
vt 0.28023 1.69275 0
vt 0.357608 1.63029 0
vt 0.859434 1.63029 0
vt 0.28023 1.69275 0
vt 0.357608 1.63029 0
vt 0.28023 1.69275 0
vt 0.28023 1.02428 0
vt 0.357608 1.12417 0
vt 0.28023 1.02428 0
vt 0.357608 1.08675 0
vt 0.483064 1.12417 0
vt 0.357608 1.08675 0
vt 0.60852 1.08675 0
vt 0.859434 1.12417 0
vt 0.733978 1.12417 0
vt 0.859434 1.08675 0
vt 0.859434 1.12417 0
vt 0.859434 1.08675 0
vt 0.936812 1.02428 0
vt 0.982077 1.23013 0
vt 0.947956 1.23013 0
vt 0.982077 1.36526 0
vt 0.859434 1.40295 0
vt 0.60852 1.40295 0
vt 0.859434 1.36213 0
vt 0.947956 1.5004 0
vt 0.982077 1.5004 0
vt 0.947956 1.36526 0
vt 0.60852 1.12417 0
vt 0.60852 1.08675 0
vt 0.733978 1.12417 0
vt 0.859434 1.20349 0
vt 0.936812 1.02428 0
vt 0.859434 1.28281 0
vt 0.60852 1.36213 0
vt 0.60852 1.40295 0
vt 0.483064 1.36213 0
vt 0.357608 1.12417 0
vt 0.357608 1.08675 0
vt 0.483064 1.12417 0
vt 0.357608 1.36213 0
vt 0.28023 1.02428 0
vt 0.357608 1.28281 0
vt 0.859434 1.08675 0
vt 0.733978 1.12417 0
vt 0.60852 1.08675 0
vt 0.859434 1.08675 0
vt 0.60852 1.08675 0
vt 0.936812 1.02428 0
vt 0.859434 1.36213 0
vt 0.60852 1.40295 0
vt 0.733978 1.36213 0
vt 0.859434 1.12417 0
vt 0.936812 1.02428 0
vt 0.859434 1.20349 0
vt 0.357608 1.28281 0
vt 0.28023 1.02428 0
vt 0.357608 1.20349 0
vt 0.733978 1.36213 0
vt 0.60852 1.40295 0
vt 0.60852 1.36213 0
vt 0.483064 1.12417 0
vt 0.60852 1.08675 0
vt 0.60852 1.12417 0
vt 0.235608 0.70265 0
vt 0.036666 0.70265 0
vt 0.036666 0.843075 0
vt 0.235608 0.843075 0
vt 0.235608 0.70265 0
vt 0.036666 0.843075 0
vt 0.145882 0.184337 0
vt 0.145804 0.184357 0
vt 0.14573 0.184337 0
vt 0.14573 0.184337 0
vt 0.145803 0.184357 0
vt 0.145729 0.184337 0
vt 0.145804 0.184357 0
vt 0.145803 0.184357 0
vt 0.14573 0.184337 0
vt 0.145882 0.184337 0
vt 0.145729 0.184337 0
vt 0.145881 0.184337 0
vt 0.14573 0.184337 0
vt 0.145729 0.184337 0
vt 0.145882 0.184337 0
vt 0.145804 0.184357 0
vt 0.145881 0.184337 0
vt 0.145803 0.184357 0
vt 0.145882 0.184337 0
vt 0.145881 0.184337 0
vt 0.145804 0.184357 0
vt 0.148254 0.182841 0
vt 0.148667 0.182851 0
vt 0.14906 0.182841 0
vt 0.14906 0.182841 0
vt 0.148664 0.182851 0
vt 0.149057 0.182841 0
vt 0.148667 0.182851 0
vt 0.148664 0.182851 0
vt 0.14906 0.182841 0
vt 0.148254 0.182841 0
vt 0.149057 0.182841 0
vt 0.148251 0.182841 0
vt 0.14906 0.182841 0
vt 0.149057 0.182841 0
vt 0.148254 0.182841 0
vt 0.148667 0.182851 0
vt 0.148251 0.182841 0
vt 0.148664 0.182851 0
vt 0.148254 0.182841 0
vt 0.148251 0.182841 0
vt 0.148667 0.182851 0
vt 0.357608 1.62814 0
vt 0.357608 1.40295 0
vt 0.859434 1.62814 0
vt 0.859434 1.62814 0
vt 0.60852 1.40295 0
vt 0.859434 1.40295 0
vt 0.357608 1.40295 0
vt 0.60852 1.40295 0
vt 0.859434 1.62814 0

# 204 vertex normals
vn 1 0 -0
vn 1 0 -0
vn 1 0 -1e-06
vn 0 -1 -0
vn 0 -1 -0
vn 0 -1 -0
vn -1 0 -0
vn -1 0 -0
vn -1 0 -0
vn 1 0 -0
vn 1 0 -0
vn 1 0 -0
vn 0 -1 -0
vn 0 -1 -0
vn 0 -1 -0
vn -1 0 1e-06
vn -1 0 -0
vn -1 0 -0
vn 0 1 -0
vn 0 1 -0
vn 0 1 -0
vn 0 0 1
vn 0 0 1
vn 0 0 1
vn -0.82146 0 0.570267
vn -0.82146 0 0.570267
vn -0.82146 0 0.570267
vn 0 0 1
vn 0 0 1
vn 0 0 1
vn 0 1 -0
vn 0 1 1e-06
vn 0 1 -0
vn 0 -0.70865 0.70556
vn 0 -0.70865 0.70556
vn 0 -0.70865 0.70556
vn 0.824995 0 0.56514
vn 0.824995 0 0.56514
vn 0.824995 0 0.56514
vn -0.82146 0 0.570267
vn -0.82146 0 0.570267
vn -0.82146 0 0.570267
vn 0 -0.70865 0.70556
vn 0 -0.70865 0.70556
vn 0 -0.70865 0.70556
vn 1e-06 1 -0
vn 0 1 -0
vn 0 1 -0
vn 0.824995 0 0.56514
vn 0.824995 0 0.56514
vn 0.824995 0 0.56514
vn -0.82146 0 0.570267
vn -0.82146 0 0.570267
vn -0.82146 0 0.570267
vn 0 1 -0
vn -1e-06 1 -0
vn 0 1 -0
vn 0.999909 1e-06 -0.01351
vn 0.999909 0 -0.013506
vn 0.999909 1e-06 -0.01351
vn -1e-06 -1 -0
vn -1e-06 -1 -0
vn -1e-06 -1 -0
vn -1e-06 -1 -0
vn -1e-06 -1 -0
vn -1e-06 -1 -0
vn -0.999979 0 0.006449
vn -0.999979 0 0.006449
vn -0.999979 0 0.006447
vn 0.999909 1e-06 -0.013515
vn 0.999909 1e-06 -0.01351
vn 0.999909 1e-06 -0.01351
vn -0.999979 -1e-06 0.006451
vn -0.999979 0 0.006449
vn -0.999979 0 0.006449
vn 0.824995 0 0.56514
vn 0.824995 0 0.56514
vn 0.824995 0 0.56514
vn 0.824995 0 0.56514
vn 0.824995 0 0.56514
vn 0.824995 0 0.56514
vn 9.99999e-07 0.708651 0.70556
vn 0 0.70865 0.70556
vn 9.99999e-07 0.708651 0.70556
vn 1e-06 0.708651 0.705559
vn 9.99999e-07 0.708651 0.70556
vn 9.99999e-07 0.708651 0.70556
vn -0.82146 0 0.570267
vn -0.82146 0 0.570267
vn -0.82146 0 0.570267
vn -0.82146 0 0.570267
vn -0.82146 0 0.570267
vn -0.82146 0 0.570267
vn 0 0 1
vn 0 0 1
vn 0 0 1
vn 0 0 1
vn 0 0 1
vn 0 0 1
vn 0.824995 0 0.56514
vn 0.824995 0 0.56514
vn 0.824995 0 0.56514
vn 1e-06 1 -0
vn 1e-06 1 -0
vn 0 1 -0
vn 0 0 1
vn 0 0 1
vn 0 0 1
vn -1e-06 1 -0
vn -1e-06 1 -0
vn 0 1 -0
vn 0 0 1
vn 0 0 1
vn 0 0 1
vn 0.824995 0 0.56514
vn 0.824995 0 0.56514
vn 0.824995 0 0.56514
vn 0 0 1
vn 0 0 1
vn 0 0 1
vn 0 0 1
vn 0 0 1
vn 0 0 1
vn -0.82146 0 0.570267
vn -0.82146 0 0.570267
vn -0.82146 0 0.570267
vn 0 0 1
vn 0 0 1
vn 0 0 1
vn 0 -0.70865 0.70556
vn 0 -0.70865 0.70556
vn 0 -0.70865 0.70556
vn 0 0 1
vn 0 0 1
vn 0 0 1
vn 0.824995 0 0.56514
vn 0.824995 0 0.56514
vn 0.824995 0 0.56514
vn -0.82146 0 0.570267
vn -0.82146 0 0.570267
vn -0.82146 0 0.570267
vn 0 0 1
vn 0 0 1
vn 0 0 1
vn 0 0 1
vn 0 0 1
vn 0 0 1
vn 0 0 1
vn 0 0 1
vn 0 0 1
vn 0 0 1
vn 0 0 1
vn 0 0 1
vn 0.00872617 7.61519e-05 0.999962
vn 0.00872617 7.61519e-05 0.999962
vn 0.00872617 7.61519e-05 0.999962
vn -0.875946 0.482349 0.00760721
vn -0.875946 0.482349 0.00760721
vn -0.875946 0.482349 0.00760721
vn -0.875946 0.482349 0.00760721
vn -0.875946 0.482349 0.00760721
vn -0.875946 0.482349 0.00760721
vn -0.00694311 -0.999976 0.000136742
vn -0.00694311 -0.999976 0.000136742
vn -0.00694311 -0.999976 0.000136742
vn -0.00694311 -0.999976 0.000136742
vn -0.00694311 -0.999976 0.000136742
vn -0.00694311 -0.999976 0.000136742
vn 0.860325 0.509691 -0.00754644
vn 0.860325 0.509691 -0.00754644
vn 0.860325 0.509691 -0.00754644
vn 0.860325 0.509691 -0.00754644
vn 0.860325 0.509691 -0.00754644
vn 0.860325 0.509691 -0.00754644
vn 0.00872617 7.61501e-05 0.999962
vn 0.00872617 7.61501e-05 0.999962
vn 0.00872617 7.61501e-05 0.999962
vn 0.875952 -0.482337 -0.00760727
vn 0.875952 -0.482337 -0.00760727
vn 0.875952 -0.482337 -0.00760727
vn 0.875952 -0.482337 -0.00760727
vn 0.875952 -0.482337 -0.00760727
vn 0.875952 -0.482337 -0.00760727
vn 0.00694331 0.999976 -0.000136742
vn 0.00694331 0.999976 -0.000136742
vn 0.00694331 0.999976 -0.000136742
vn 0.00694331 0.999976 -0.000136742
vn 0.00694331 0.999976 -0.000136742
vn 0.00694331 0.999976 -0.000136742
vn -0.860318 -0.509702 0.00754638
vn -0.860318 -0.509702 0.00754638
vn -0.860318 -0.509702 0.00754638
vn -0.860318 -0.509702 0.00754638
vn -0.860318 -0.509702 0.00754638
vn -0.860318 -0.509702 0.00754638
vn 0 0 1
vn -1e-06 0 1
vn 0 0 1
vn 0 0 1
vn 0 0 1
vn 1e-06 -1e-06 1
vn -1e-06 0 1
vn 0 0 1
vn 0 0 1

# Mesh 'Scene_Root' with 65 faces
g Scene_Root
usemtl KeyPad
f  1/1/1 2/2/2 3/3/3
f  4/4/4 5/5/5 6/6/6
f  7/7/7 8/8/8 9/9/9
f  10/10/10 11/11/11 12/12/12
f  13/13/13 14/14/14 15/15/15
f  16/16/16 17/17/17 18/18/18
f  19/19/19 20/20/20 21/21/21
f  22/22/22 23/23/23 24/24/24
f  25/25/25 26/26/26 27/27/27
f  28/28/28 29/29/29 30/30/30
f  31/31/31 32/32/32 33/33/33
f  34/34/34 35/35/35 36/36/36
f  37/37/37 38/38/38 39/39/39
f  40/40/40 41/41/41 42/42/42
f  43/43/43 44/44/44 45/45/45
f  46/46/46 47/47/47 48/48/48
f  49/49/49 50/50/50 51/51/51
f  52/52/52 53/53/53 54/54/54
f  55/55/55 56/56/56 57/57/57
f  58/58/58 59/59/59 60/60/60
f  61/61/61 62/62/62 63/63/63
f  64/64/64 65/65/65 66/66/66
f  67/67/67 68/68/68 69/69/69
f  70/70/70 71/71/71 72/72/72
f  73/73/73 74/74/74 75/75/75
f  76/76/76 77/77/77 78/78/78
f  79/79/79 80/80/80 81/81/81
f  82/82/82 83/83/83 84/84/84
f  85/85/85 86/86/86 87/87/87
f  88/88/88 89/89/89 90/90/90
f  91/91/91 92/92/92 93/93/93
f  94/94/94 95/95/95 96/96/96
f  97/97/97 98/98/98 99/99/99
f  100/100/100 101/101/101 102/102/102
f  103/103/103 104/104/104 105/105/105
f  106/106/106 107/107/107 108/108/108
f  109/109/109 110/110/110 111/111/111
f  112/112/112 113/113/113 114/114/114
f  115/115/115 116/116/116 117/117/117
f  118/118/118 119/119/119 120/120/120
f  121/121/121 122/122/122 123/123/123
f  124/124/124 125/125/125 126/126/126
f  127/127/127 128/128/128 129/129/129
f  130/130/130 131/131/131 132/132/132
f  133/133/133 134/134/134 135/135/135
f  136/136/136 137/137/137 138/138/138
f  139/139/139 140/140/140 141/141/141
f  142/142/142 143/143/143 144/144/144
f  145/145/145 146/146/146 147/147/147
f  148/148/148 149/149/149 150/150/150
f  151/151/151 152/152/152 153/153/153
f  154/154/154 155/155/155 156/156/156
f  157/157/157 158/158/158 159/159/159
f  160/160/160 161/161/161 162/162/162
f  163/163/163 164/164/164 165/165/165
f  166/166/166 167/167/167 168/168/168
f  169/169/169 170/170/170 171/171/171
f  172/172/172 173/173/173 174/174/174
f  175/175/175 176/176/176 177/177/177
f  178/178/178 179/179/179 180/180/180
f  181/181/181 182/182/182 183/183/183
f  184/184/184 185/185/185 186/186/186
f  187/187/187 188/188/188 189/189/189
f  190/190/190 191/191/191 192/192/192
f  193/193/193 194/194/194 195/195/195

# Mesh 'Scene_Root' with 3 faces
g Scene_Root
usemtl glow
f  196/196/196 197/197/197 198/198/198
f  199/199/199 200/200/200 201/201/201
f  202/202/202 203/203/203 204/204/204

